<mxfile host="app.diagrams.net" agent="Mozilla/5.0 (Windows NT 10.0; Win64; x64) AppleWebKit/537.36 (KHTML, like Gecko) Chrome/128.0.0.0 Safari/537.36 Edg/128.0.0.0" version="24.7.14">
  <diagram name="Page-1" id="Oq3CJiL0T3c38GLADFl2">
    <mxGraphModel dx="1002" dy="565" grid="1" gridSize="10" guides="1" tooltips="1" connect="1" arrows="1" fold="1" page="1" pageScale="1" pageWidth="1654" pageHeight="2336" math="0" shadow="0">
      <root>
        <mxCell id="0" />
        <mxCell id="1" parent="0" />
        <mxCell id="ma6ObScLwg23mk8OoGNN-1" style="rounded=0;orthogonalLoop=1;jettySize=auto;html=1;exitX=0;exitY=0.5;exitDx=0;exitDy=0;" edge="1" parent="1" source="ma6ObScLwg23mk8OoGNN-6" target="ma6ObScLwg23mk8OoGNN-5">
          <mxGeometry relative="1" as="geometry" />
        </mxCell>
        <mxCell id="ma6ObScLwg23mk8OoGNN-2" value="extend" style="edgeLabel;html=1;align=center;verticalAlign=middle;resizable=0;points=[];" vertex="1" connectable="0" parent="ma6ObScLwg23mk8OoGNN-1">
          <mxGeometry x="-0.1632" y="-3" relative="1" as="geometry">
            <mxPoint as="offset" />
          </mxGeometry>
        </mxCell>
        <mxCell id="ma6ObScLwg23mk8OoGNN-3" style="rounded=0;orthogonalLoop=1;jettySize=auto;html=1;exitX=0;exitY=0.5;exitDx=0;exitDy=0;" edge="1" parent="1" source="ma6ObScLwg23mk8OoGNN-7" target="ma6ObScLwg23mk8OoGNN-5">
          <mxGeometry relative="1" as="geometry" />
        </mxCell>
        <mxCell id="ma6ObScLwg23mk8OoGNN-4" style="rounded=0;orthogonalLoop=1;jettySize=auto;html=1;exitX=0;exitY=0.5;exitDx=0;exitDy=0;" edge="1" parent="1" source="ma6ObScLwg23mk8OoGNN-8" target="ma6ObScLwg23mk8OoGNN-5">
          <mxGeometry relative="1" as="geometry" />
        </mxCell>
        <mxCell id="ma6ObScLwg23mk8OoGNN-5" value="Quản lý độc giả" style="ellipse;whiteSpace=wrap;html=1;" vertex="1" parent="1">
          <mxGeometry x="200" y="160" width="140" height="70" as="geometry" />
        </mxCell>
        <mxCell id="ma6ObScLwg23mk8OoGNN-6" value="Quản lý thông tin tài khoản" style="ellipse;whiteSpace=wrap;html=1;" vertex="1" parent="1">
          <mxGeometry x="470" y="70" width="140" height="70" as="geometry" />
        </mxCell>
        <mxCell id="ma6ObScLwg23mk8OoGNN-7" value="Cập nhật thẻ độc giả" style="ellipse;whiteSpace=wrap;html=1;" vertex="1" parent="1">
          <mxGeometry x="470" y="160" width="140" height="70" as="geometry" />
        </mxCell>
        <mxCell id="ma6ObScLwg23mk8OoGNN-8" value="Xóa độc giả" style="ellipse;whiteSpace=wrap;html=1;" vertex="1" parent="1">
          <mxGeometry x="470" y="260" width="140" height="70" as="geometry" />
        </mxCell>
        <mxCell id="ma6ObScLwg23mk8OoGNN-9" value="extend" style="edgeLabel;html=1;align=center;verticalAlign=middle;resizable=0;points=[];" vertex="1" connectable="0" parent="1">
          <mxGeometry x="416.75824361610626" y="194.99903354283293" as="geometry" />
        </mxCell>
        <mxCell id="ma6ObScLwg23mk8OoGNN-10" value="extend" style="edgeLabel;html=1;align=center;verticalAlign=middle;resizable=0;points=[];" vertex="1" connectable="0" parent="1">
          <mxGeometry x="399.99824361610627" y="259.99903354283293" as="geometry" />
        </mxCell>
      </root>
    </mxGraphModel>
  </diagram>
</mxfile>
